<?xml version="1.0" encoding="UTF-8" standalone="no"?>
<!DOCTYPE svg PUBLIC "-//W3C//DTD SVG 1.1//EN"
 "http://www.w3.org/Graphics/SVG/1.1/DTD/svg11.dtd">
<!-- Generated by graphviz version 2.38.0 (20140413.2041)
 -->
<!-- Title: models_diagram Pages: 1 -->
<svg width="2189pt" height="289pt"
 viewBox="0.00 0.00 2188.88 289.00" xmlns="http://www.w3.org/2000/svg" xmlns:xlink="http://www.w3.org/1999/xlink">
<g id="graph0" class="graph" transform="scale(1 1) rotate(0) translate(4 285)">
<title>models_diagram</title>
<polygon fill="white" stroke="none" points="-4,4 -4,-285 2184.88,-285 2184.88,4 -4,4"/>
<!-- Actividad -->
<g id="node1" class="node"><title>Actividad</title>
<ellipse fill="none" stroke="black" cx="1829.77" cy="-104" rx="44.9596" ry="18"/>
<text text-anchor="middle" x="1829.77" y="-99.8" font-family="Times,serif" font-size="14.00">Actividad</text>
</g>
<!-- ActividadPlantacion -->
<g id="node2" class="node"><title>ActividadPlantacion</title>
<ellipse fill="none" stroke="black" cx="1054.77" cy="-18" rx="82.1199" ry="18"/>
<text text-anchor="middle" x="1054.77" y="-13.8" font-family="Times,serif" font-size="14.00">ActividadPlantacion</text>
</g>
<!-- Actividad&#45;&gt;ActividadPlantacion -->
<g id="edge1" class="edge"><title>Actividad&#45;&gt;ActividadPlantacion</title>
<path fill="none" stroke="#55397c" d="M1778.88,-97.4847C1647.73,-83.2695 1297.26,-45.2835 1136.91,-27.9034"/>
<ellipse fill="none" stroke="#55397c" cx="1783.02" cy="-97.9331" rx="4" ry="4"/>
<polygon fill="#55397c" stroke="#55397c" points="1136.57,-27.8665 1127.11,-22.315 1131.6,-27.3276 1126.63,-26.7888 1126.63,-26.7888 1126.63,-26.7888 1131.6,-27.3276 1126.14,-31.2626 1136.57,-27.8665 1136.57,-27.8665"/>
<text text-anchor="middle" x="1558.74" y="-56.8" font-family="Times,serif" font-size="14.00">actividades_plantaciones</text>
</g>
<!-- Departamento -->
<g id="node3" class="node"><title>Departamento</title>
<ellipse fill="none" stroke="black" cx="1223.77" cy="-177" rx="60.3942" ry="18"/>
<text text-anchor="middle" x="1223.77" y="-172.8" font-family="Times,serif" font-size="14.00">Departamento</text>
</g>
<!-- Plantacion -->
<g id="node19" class="node"><title>Plantacion</title>
<ellipse fill="none" stroke="black" cx="1043.77" cy="-104" rx="47.3736" ry="18"/>
<text text-anchor="middle" x="1043.77" y="-99.8" font-family="Times,serif" font-size="14.00">Plantacion</text>
</g>
<!-- Departamento&#45;&gt;Plantacion -->
<g id="edge2" class="edge"><title>Departamento&#45;&gt;Plantacion</title>
<path fill="none" stroke="#6e9bfb" d="M1188.09,-157.451C1176.07,-151.523 1162.48,-145.165 1149.77,-140 1130.35,-132.112 1108.42,-124.642 1089.56,-118.645"/>
<ellipse fill="none" stroke="#6e9bfb" cx="1191.77" cy="-159.287" rx="4.00002" ry="4.00002"/>
<polygon fill="#6e9bfb" stroke="#6e9bfb" points="1089.56,-118.643 1081.36,-111.355 1084.79,-117.146 1080.02,-115.649 1080.02,-115.649 1080.02,-115.649 1084.79,-117.146 1078.67,-119.943 1089.56,-118.643 1089.56,-118.643"/>
</g>
<!-- Destino -->
<g id="node4" class="node"><title>Destino</title>
<ellipse fill="none" stroke="black" cx="1873.77" cy="-263" rx="37.7352" ry="18"/>
<text text-anchor="middle" x="1873.77" y="-258.8" font-family="Times,serif" font-size="14.00">Destino</text>
</g>
<!-- Movimiento -->
<g id="node15" class="node"><title>Movimiento</title>
<ellipse fill="none" stroke="black" cx="1829.77" cy="-177" rx="53.6643" ry="18"/>
<text text-anchor="middle" x="1829.77" y="-172.8" font-family="Times,serif" font-size="14.00">Movimiento</text>
</g>
<!-- Destino&#45;&gt;Movimiento -->
<g id="edge3" class="edge"><title>Destino&#45;&gt;Movimiento</title>
<path fill="none" stroke="#7f9e41" d="M1861.25,-238.114C1855.66,-227.431 1849.05,-214.814 1843.33,-203.905"/>
<ellipse fill="none" stroke="#7f9e41" cx="1863.22" cy="-241.861" rx="4.00002" ry="4.00002"/>
<polygon fill="#7f9e41" stroke="#7f9e41" points="1843.23,-203.707 1842.58,-192.761 1840.91,-199.278 1838.59,-194.849 1838.59,-194.849 1838.59,-194.849 1840.91,-199.278 1834.6,-196.937 1843.23,-203.707 1843.23,-203.707"/>
</g>
<!-- Error -->
<g id="node5" class="node"><title>Error</title>
<ellipse fill="none" stroke="black" cx="28.7653" cy="-177" rx="28.5325" ry="18"/>
<text text-anchor="middle" x="28.7653" y="-172.8" font-family="Times,serif" font-size="14.00">Error</text>
</g>
<!-- Error&#45;&gt;Plantacion -->
<g id="edge4" class="edge"><title>Error&#45;&gt;Plantacion</title>
<path fill="none" stroke="#41188b" d="M57.896,-161.445C60.5146,-160.496 63.161,-159.659 65.7653,-159 192.277,-127.003 228.413,-146.123 358.765,-140 496.006,-133.554 840.695,-141.009 976.765,-122 983.553,-121.052 990.646,-119.681 997.571,-118.122"/>
<ellipse fill="none" stroke="#41188b" cx="53.9019" cy="-163.06" rx="4.00001" ry="4.00001"/>
<polygon fill="#41188b" stroke="#41188b" points="997.817,-118.064 1008.59,-120.109 1002.68,-116.898 1007.54,-115.733 1007.54,-115.733 1007.54,-115.733 1002.68,-116.898 1006.49,-111.357 997.817,-118.064 997.817,-118.064"/>
</g>
<!-- Especie -->
<g id="node6" class="node"><title>Especie</title>
<ellipse fill="none" stroke="black" cx="112.765" cy="-177" rx="37.7092" ry="18"/>
<text text-anchor="middle" x="112.765" y="-172.8" font-family="Times,serif" font-size="14.00">Especie</text>
</g>
<!-- Especie&#45;&gt;Plantacion -->
<g id="edge5" class="edge"><title>Especie&#45;&gt;Plantacion</title>
<path fill="none" stroke="#c049dc" d="M149.676,-161.249C152.719,-160.374 155.774,-159.605 158.765,-159 337.116,-122.921 796.76,-148.624 976.765,-122 983.545,-120.997 990.634,-119.596 997.557,-118.024"/>
<polygon fill="#c049dc" stroke="#c049dc" points="149.612,-161.27 138.714,-160.051 144.852,-162.802 140.093,-164.334 140.093,-164.334 140.093,-164.334 144.852,-162.802 141.472,-168.618 149.612,-161.27 149.612,-161.27"/>
<polygon fill="#c049dc" stroke="#c049dc" points="997.804,-117.964 1008.58,-119.999 1002.67,-116.794 1007.53,-115.624 1007.53,-115.624 1007.53,-115.624 1002.67,-116.794 1006.47,-111.249 997.804,-117.964 997.804,-117.964"/>
</g>
<!-- EstadoAprobacion -->
<g id="node7" class="node"><title>EstadoAprobacion</title>
<ellipse fill="none" stroke="black" cx="891.765" cy="-104" rx="75.8466" ry="18"/>
<text text-anchor="middle" x="891.765" y="-99.8" font-family="Times,serif" font-size="14.00">EstadoAprobacion</text>
</g>
<!-- EstadoAprobacion&#45;&gt;ActividadPlantacion -->
<g id="edge6" class="edge"><title>EstadoAprobacion&#45;&gt;ActividadPlantacion</title>
<path fill="none" stroke="#7f380a" d="M893.278,-77.8084C895.021,-69.2184 898.401,-60.2225 904.82,-54 915.601,-43.5486 945.796,-35.5299 976.289,-29.8215"/>
<ellipse fill="none" stroke="#7f380a" cx="892.663" cy="-81.8612" rx="4.00001" ry="4.00001"/>
<polygon fill="#7f380a" stroke="#7f380a" points="976.333,-29.8137 986.97,-32.4785 981.255,-28.9314 986.176,-28.0491 986.176,-28.0491 986.176,-28.0491 981.255,-28.9314 985.382,-23.6197 976.333,-29.8137 976.333,-29.8137"/>
<text text-anchor="middle" x="975.738" y="-56.8" font-family="Times,serif" font-size="14.00">actividades_plantaciones</text>
</g>
<!-- EstadoPlantacion -->
<g id="node8" class="node"><title>EstadoPlantacion</title>
<ellipse fill="none" stroke="black" cx="239.765" cy="-177" rx="71.5117" ry="18"/>
<text text-anchor="middle" x="239.765" y="-172.8" font-family="Times,serif" font-size="14.00">EstadoPlantacion</text>
</g>
<!-- EstadoPlantacion&#45;&gt;Plantacion -->
<g id="edge7" class="edge"><title>EstadoPlantacion&#45;&gt;Plantacion</title>
<path fill="none" stroke="#007a82" d="M298.247,-162.639C305.795,-161.235 313.443,-159.969 320.765,-159 465.512,-139.839 832.448,-144.168 976.765,-122 983.46,-120.972 990.459,-119.571 997.303,-118.011"/>
<ellipse fill="none" stroke="#007a82" cx="294.045" cy="-163.45" rx="4.00001" ry="4.00001"/>
<polygon fill="#007a82" stroke="#007a82" points="997.443,-117.977 1008.22,-120.013 1002.3,-116.807 1007.17,-115.638 1007.17,-115.638 1007.17,-115.638 1002.3,-116.807 1006.11,-111.262 997.443,-117.977 997.443,-117.977"/>
</g>
<!-- EstratoDesarrollo -->
<g id="node9" class="node"><title>EstratoDesarrollo</title>
<ellipse fill="none" stroke="black" cx="401.765" cy="-177" rx="72.4635" ry="18"/>
<text text-anchor="middle" x="401.765" y="-172.8" font-family="Times,serif" font-size="14.00">EstratoDesarrollo</text>
</g>
<!-- EstratoDesarrollo&#45;&gt;Plantacion -->
<g id="edge8" class="edge"><title>EstratoDesarrollo&#45;&gt;Plantacion</title>
<path fill="none" stroke="#21be6a" d="M460.912,-162.646C468.246,-161.268 475.661,-160.007 482.765,-159 591.761,-143.549 868.115,-139.715 976.765,-122 983.45,-120.91 990.443,-119.475 997.285,-117.899"/>
<ellipse fill="none" stroke="#21be6a" cx="456.931" cy="-163.418" rx="4.00001" ry="4.00001"/>
<polygon fill="#21be6a" stroke="#21be6a" points="997.426,-117.865 1008.2,-119.887 1002.29,-116.689 1007.15,-115.513 1007.15,-115.513 1007.15,-115.513 1002.29,-116.689 1006.09,-111.14 997.426,-117.865 997.426,-117.865"/>
</g>
<!-- Expediente -->
<g id="node10" class="node"><title>Expediente</title>
<ellipse fill="none" stroke="black" cx="1640.77" cy="-263" rx="49.7706" ry="18"/>
<text text-anchor="middle" x="1640.77" y="-258.8" font-family="Times,serif" font-size="14.00">Expediente</text>
</g>
<!-- Expediente&#45;&gt;Movimiento -->
<g id="edge9" class="edge"><title>Expediente&#45;&gt;Movimiento</title>
<path fill="none" stroke="#2f3f22" d="M1678.84,-245.077C1710.98,-230.795 1756.85,-210.409 1789.57,-195.866"/>
<ellipse fill="none" stroke="#2f3f22" cx="1674.79" cy="-246.879" rx="4.00002" ry="4.00002"/>
<polygon fill="#2f3f22" stroke="#2f3f22" points="1789.71,-195.803 1800.67,-195.854 1794.28,-193.772 1798.85,-191.742 1798.85,-191.742 1798.85,-191.742 1794.28,-193.772 1797.02,-187.629 1789.71,-195.803 1789.71,-195.803"/>
</g>
<!-- Titular -->
<g id="node23" class="node"><title>Titular</title>
<ellipse fill="none" stroke="black" cx="1693.77" cy="-177" rx="33.7305" ry="18"/>
<text text-anchor="middle" x="1693.77" y="-172.8" font-family="Times,serif" font-size="14.00">Titular</text>
</g>
<!-- Expediente&#45;&gt;Titular -->
<g id="edge10" class="edge"><title>Expediente&#45;&gt;Titular</title>
<path fill="none" stroke="#5c68d2" d="M1656.86,-236.49C1663.53,-225.914 1671.25,-213.678 1677.9,-203.141"/>
<polygon fill="#5c68d2" stroke="#5c68d2" points="1656.83,-236.544 1647.68,-242.6 1654.16,-240.773 1651.49,-245.001 1651.49,-245.001 1651.49,-245.001 1654.16,-240.773 1655.3,-247.403 1656.83,-236.544 1656.83,-236.544"/>
<polygon fill="#5c68d2" stroke="#5c68d2" points="1678.08,-202.859 1687.22,-196.803 1680.75,-198.63 1683.42,-194.402 1683.42,-194.402 1683.42,-194.402 1680.75,-198.63 1679.61,-192 1678.08,-202.859 1678.08,-202.859"/>
</g>
<!-- FuenteImagen -->
<g id="node11" class="node"><title>FuenteImagen</title>
<ellipse fill="none" stroke="black" cx="552.765" cy="-177" rx="60.8873" ry="18"/>
<text text-anchor="middle" x="552.765" y="-172.8" font-family="Times,serif" font-size="14.00">FuenteImagen</text>
</g>
<!-- FuenteImagen&#45;&gt;Plantacion -->
<g id="edge11" class="edge"><title>FuenteImagen&#45;&gt;Plantacion</title>
<path fill="none" stroke="#c264fb" d="M604.805,-162.547C610.837,-161.23 616.919,-160.011 622.765,-159 778.643,-132.051 821.027,-149.747 976.765,-122 983.354,-120.826 990.251,-119.357 997.01,-117.777"/>
<ellipse fill="none" stroke="#c264fb" cx="600.541" cy="-163.511" rx="4.00001" ry="4.00001"/>
<polygon fill="#c264fb" stroke="#c264fb" points="997.045,-117.769 1007.83,-119.777 1001.9,-116.586 1006.76,-115.404 1006.76,-115.404 1006.76,-115.404 1001.9,-116.586 1005.7,-111.032 997.045,-117.769 997.045,-117.769"/>
</g>
<!-- FuenteInformacion -->
<g id="node12" class="node"><title>FuenteInformacion</title>
<ellipse fill="none" stroke="black" cx="709.765" cy="-177" rx="77.7676" ry="18"/>
<text text-anchor="middle" x="709.765" y="-172.8" font-family="Times,serif" font-size="14.00">FuenteInformacion</text>
</g>
<!-- FuenteInformacion&#45;&gt;Plantacion -->
<g id="edge12" class="edge"><title>FuenteInformacion&#45;&gt;Plantacion</title>
<path fill="none" stroke="#194211" d="M775.143,-163.159C841.362,-150.084 939.213,-130.556 976.765,-122 982.985,-120.583 989.51,-119.021 995.946,-117.436"/>
<ellipse fill="none" stroke="#194211" cx="771.155" cy="-163.946" rx="4.00001" ry="4.00001"/>
<polygon fill="#194211" stroke="#194211" points="996.228,-117.366 1007.02,-119.31 1001.08,-116.155 1005.93,-114.944 1005.93,-114.944 1005.93,-114.944 1001.08,-116.155 1004.84,-110.578 996.228,-117.366 996.228,-117.366"/>
</g>
<!-- Genero -->
<g id="node13" class="node"><title>Genero</title>
<ellipse fill="none" stroke="black" cx="112.765" cy="-263" rx="36.2645" ry="18"/>
<text text-anchor="middle" x="112.765" y="-258.8" font-family="Times,serif" font-size="14.00">Genero</text>
</g>
<!-- Genero&#45;&gt;Especie -->
<g id="edge13" class="edge"><title>Genero&#45;&gt;Especie</title>
<path fill="none" stroke="#ab16c4" d="M112.765,-236.257C112.765,-226.441 112.765,-215.226 112.765,-205.273"/>
<ellipse fill="none" stroke="#ab16c4" cx="112.765" cy="-240.595" rx="4" ry="4"/>
<polygon fill="#ab16c4" stroke="#ab16c4" points="112.765,-205.095 117.265,-195.095 112.765,-200.095 112.765,-195.095 112.765,-195.095 112.765,-195.095 112.765,-200.095 108.265,-195.095 112.765,-205.095 112.765,-205.095"/>
</g>
<!-- Inspector -->
<g id="node14" class="node"><title>Inspector</title>
<ellipse fill="none" stroke="black" cx="1972.77" cy="-263" rx="43.0215" ry="18"/>
<text text-anchor="middle" x="1972.77" y="-258.8" font-family="Times,serif" font-size="14.00">Inspector</text>
</g>
<!-- Inspector&#45;&gt;Movimiento -->
<g id="edge14" class="edge"><title>Inspector&#45;&gt;Movimiento</title>
<path fill="none" stroke="#7324b3" d="M1970.61,-236.904C1968.68,-228.324 1965.16,-219.31 1958.77,-213 1958.58,-212.814 1916.5,-201.417 1880.46,-191.68"/>
<ellipse fill="none" stroke="#7324b3" cx="1971.32" cy="-240.955" rx="4.00001" ry="4.00001"/>
<polygon fill="#7324b3" stroke="#7324b3" points="1880.15,-191.596 1871.67,-184.644 1875.32,-190.292 1870.49,-188.988 1870.49,-188.988 1870.49,-188.988 1875.32,-190.292 1869.32,-193.333 1880.15,-191.596 1880.15,-191.596"/>
</g>
<!-- Inspector&#45;&gt;Movimiento -->
<g id="edge15" class="edge"><title>Inspector&#45;&gt;Movimiento</title>
<path fill="none" stroke="#85a450" d="M1932.37,-248.45C1905.66,-239.403 1875.07,-228.837 1872.36,-227 1862.88,-220.581 1854.22,-211.545 1847.22,-202.978"/>
<ellipse fill="none" stroke="#85a450" cx="1936.35" cy="-249.794" rx="4.00001" ry="4.00001"/>
<polygon fill="#85a450" stroke="#85a450" points="1847.17,-202.912 1844.6,-192.251 1844.11,-198.96 1841.04,-195.008 1841.04,-195.008 1841.04,-195.008 1844.11,-198.96 1837.49,-197.764 1847.17,-202.912 1847.17,-202.912"/>
<text text-anchor="middle" x="1913.97" y="-215.8" font-family="Times,serif" font-size="14.00">reinspecciones</text>
</g>
<!-- Movimiento&#45;&gt;Actividad -->
<g id="edge16" class="edge"><title>Movimiento&#45;&gt;Actividad</title>
<path fill="none" stroke="#427d98" d="M1829.77,-150.791C1829.77,-144.832 1829.77,-138.45 1829.77,-132.399"/>
<ellipse fill="none" stroke="#427d98" cx="1829.77" cy="-154.813" rx="4" ry="4"/>
<polygon fill="#427d98" stroke="#427d98" points="1829.77,-132.029 1834.27,-122.029 1829.77,-127.029 1829.77,-122.029 1829.77,-122.029 1829.77,-122.029 1829.77,-127.029 1825.27,-122.029 1829.77,-132.029 1829.77,-132.029"/>
</g>
<!-- MsExpediente -->
<g id="node16" class="node"><title>MsExpediente</title>
<ellipse fill="none" stroke="black" cx="2107.77" cy="-263" rx="61.3804" ry="18"/>
<text text-anchor="middle" x="2107.77" y="-258.8" font-family="Times,serif" font-size="14.00">MsExpediente</text>
</g>
<!-- MsMovimiento -->
<g id="node17" class="node"><title>MsMovimiento</title>
<ellipse fill="none" stroke="black" cx="2107.77" cy="-177" rx="65.2736" ry="18"/>
<text text-anchor="middle" x="2107.77" y="-172.8" font-family="Times,serif" font-size="14.00">MsMovimiento</text>
</g>
<!-- MsExpediente&#45;&gt;MsMovimiento -->
<g id="edge17" class="edge"><title>MsExpediente&#45;&gt;MsMovimiento</title>
<path fill="none" stroke="#09eaee" d="M2107.77,-236.257C2107.77,-226.441 2107.77,-215.226 2107.77,-205.273"/>
<ellipse fill="none" stroke="#09eaee" cx="2107.77" cy="-240.595" rx="4" ry="4"/>
<polygon fill="#09eaee" stroke="#09eaee" points="2107.77,-205.095 2112.27,-195.095 2107.77,-200.095 2107.77,-195.095 2107.77,-195.095 2107.77,-195.095 2107.77,-200.095 2103.27,-195.095 2107.77,-205.095 2107.77,-205.095"/>
<text text-anchor="middle" x="2144.32" y="-215.8" font-family="Times,serif" font-size="14.00">movimientos</text>
</g>
<!-- ObjetivoPlantacion -->
<g id="node18" class="node"><title>ObjetivoPlantacion</title>
<ellipse fill="none" stroke="black" cx="883.765" cy="-177" rx="78.2694" ry="18"/>
<text text-anchor="middle" x="883.765" y="-172.8" font-family="Times,serif" font-size="14.00">ObjetivoPlantacion</text>
</g>
<!-- ObjetivoPlantacion&#45;&gt;Plantacion -->
<g id="edge18" class="edge"><title>ObjetivoPlantacion&#45;&gt;Plantacion</title>
<path fill="none" stroke="#3fd12c" d="M925.695,-157.394C950.211,-146.515 980.947,-132.875 1004.91,-122.24"/>
<ellipse fill="none" stroke="#3fd12c" cx="921.746" cy="-159.146" rx="4.00002" ry="4.00002"/>
<polygon fill="#3fd12c" stroke="#3fd12c" points="1004.93,-122.234 1015.89,-122.291 1009.5,-120.206 1014.07,-118.177 1014.07,-118.177 1014.07,-118.177 1009.5,-120.206 1012.24,-114.064 1004.93,-122.234 1004.93,-122.234"/>
</g>
<!-- Plantacion&#45;&gt;ActividadPlantacion -->
<g id="edge19" class="edge"><title>Plantacion&#45;&gt;ActividadPlantacion</title>
<path fill="none" stroke="#71c4a1" d="M1047.03,-78.0469C1048.34,-68.0569 1049.85,-56.5171 1051.19,-46.304"/>
<ellipse fill="none" stroke="#71c4a1" cx="1046.51" cy="-82.0352" rx="4.00001" ry="4.00001"/>
<polygon fill="#71c4a1" stroke="#71c4a1" points="1051.21,-46.177 1056.97,-36.846 1051.86,-41.2194 1052.5,-36.2617 1052.5,-36.2617 1052.5,-36.2617 1051.86,-41.2194 1048.04,-35.6773 1051.21,-46.177 1051.21,-46.177"/>
<text text-anchor="middle" x="1120.74" y="-56.8" font-family="Times,serif" font-size="14.00">actividades_plantaciones</text>
</g>
<!-- Responsable -->
<g id="node20" class="node"><title>Responsable</title>
<ellipse fill="none" stroke="black" cx="1763.77" cy="-263" rx="54.6162" ry="18"/>
<text text-anchor="middle" x="1763.77" y="-258.8" font-family="Times,serif" font-size="14.00">Responsable</text>
</g>
<!-- Responsable&#45;&gt;Movimiento -->
<g id="edge20" class="edge"><title>Responsable&#45;&gt;Movimiento</title>
<path fill="none" stroke="#b6f31a" d="M1781.97,-238.833C1790.85,-227.534 1801.53,-213.941 1810.54,-202.473"/>
<ellipse fill="none" stroke="#b6f31a" cx="1779.28" cy="-242.259" rx="4.00002" ry="4.00002"/>
<polygon fill="#b6f31a" stroke="#b6f31a" points="1810.57,-202.424 1820.29,-197.341 1813.66,-198.493 1816.75,-194.561 1816.75,-194.561 1816.75,-194.561 1813.66,-198.493 1813.21,-191.781 1810.57,-202.424 1810.57,-202.424"/>
</g>
<!-- TipoActividad -->
<g id="node21" class="node"><title>TipoActividad</title>
<ellipse fill="none" stroke="black" cx="1962.77" cy="-177" rx="61.2515" ry="18"/>
<text text-anchor="middle" x="1962.77" y="-172.8" font-family="Times,serif" font-size="14.00">TipoActividad</text>
</g>
<!-- TipoActividad&#45;&gt;Actividad -->
<g id="edge21" class="edge"><title>TipoActividad&#45;&gt;Actividad</title>
<path fill="none" stroke="#2df0af" d="M1927.47,-157.158C1908.08,-146.805 1884.11,-134.008 1864.76,-123.681"/>
<ellipse fill="none" stroke="#2df0af" cx="1931.03" cy="-159.059" rx="4.00002" ry="4.00002"/>
<polygon fill="#2df0af" stroke="#2df0af" points="1864.5,-123.541 1857.79,-114.862 1860.09,-121.186 1855.68,-118.832 1855.68,-118.832 1855.68,-118.832 1860.09,-121.186 1853.56,-122.801 1864.5,-123.541 1864.5,-123.541"/>
</g>
<!-- TipoPlantacion -->
<g id="node22" class="node"><title>TipoPlantacion</title>
<ellipse fill="none" stroke="black" cx="1043.77" cy="-177" rx="63.6656" ry="18"/>
<text text-anchor="middle" x="1043.77" y="-172.8" font-family="Times,serif" font-size="14.00">TipoPlantacion</text>
</g>
<!-- TipoPlantacion&#45;&gt;Plantacion -->
<g id="edge22" class="edge"><title>TipoPlantacion&#45;&gt;Plantacion</title>
<path fill="none" stroke="#fa7741" d="M1043.77,-150.791C1043.77,-144.832 1043.77,-138.45 1043.77,-132.399"/>
<ellipse fill="none" stroke="#fa7741" cx="1043.77" cy="-154.813" rx="4" ry="4"/>
<polygon fill="#fa7741" stroke="#fa7741" points="1043.77,-132.029 1048.27,-122.029 1043.77,-127.029 1043.77,-122.029 1043.77,-122.029 1043.77,-122.029 1043.77,-127.029 1039.27,-122.029 1043.77,-132.029 1043.77,-132.029"/>
</g>
<!-- Titular&#45;&gt;Plantacion -->
<g id="edge23" class="edge"><title>Titular&#45;&gt;Plantacion</title>
<path fill="none" stroke="#f07bf4" d="M1660.91,-161.911C1657.53,-160.792 1654.1,-159.791 1650.77,-159 1453.05,-112.161 1210.36,-105.208 1101.45,-104.657"/>
<ellipse fill="none" stroke="#f07bf4" cx="1664.92" cy="-163.344" rx="4.00001" ry="4.00001"/>
<polygon fill="#f07bf4" stroke="#f07bf4" points="1101.34,-104.657 1091.35,-100.123 1096.34,-104.64 1091.34,-104.623 1091.34,-104.623 1091.34,-104.623 1096.34,-104.64 1091.32,-109.123 1101.34,-104.657 1101.34,-104.657"/>
</g>
<!-- Unificado -->
<g id="node24" class="node"><title>Unificado</title>
<ellipse fill="none" stroke="black" cx="1346.77" cy="-177" rx="44.9682" ry="18"/>
<text text-anchor="middle" x="1346.77" y="-172.8" font-family="Times,serif" font-size="14.00">Unificado</text>
</g>
<!-- Unificado&#45;&gt;Plantacion -->
<g id="edge24" class="edge"><title>Unificado&#45;&gt;Plantacion</title>
<path fill="none" stroke="#629757" d="M1305.53,-162.593C1301.23,-161.325 1296.92,-160.102 1292.77,-159 1225.17,-141.069 1146.09,-124.689 1095.49,-114.784"/>
<ellipse fill="none" stroke="#629757" cx="1309.37" cy="-163.755" rx="4.00001" ry="4.00001"/>
<polygon fill="#629757" stroke="#629757" points="1095.27,-114.741 1086.32,-108.413 1090.37,-113.786 1085.46,-112.83 1085.46,-112.83 1085.46,-112.83 1090.37,-113.786 1084.6,-117.248 1095.27,-114.741 1095.27,-114.741"/>
</g>
<!-- UsoAnterior -->
<g id="node25" class="node"><title>UsoAnterior</title>
<ellipse fill="none" stroke="black" cx="1463.77" cy="-177" rx="54.1317" ry="18"/>
<text text-anchor="middle" x="1463.77" y="-172.8" font-family="Times,serif" font-size="14.00">UsoAnterior</text>
</g>
<!-- UsoAnterior&#45;&gt;Plantacion -->
<g id="edge25" class="edge"><title>UsoAnterior&#45;&gt;Plantacion</title>
<path fill="none" stroke="#6b6a82" d="M1416.19,-162.549C1411,-161.266 1405.79,-160.054 1400.77,-159 1294.64,-136.73 1168.92,-119.899 1098.55,-111.326"/>
<ellipse fill="none" stroke="#6b6a82" cx="1420.4" cy="-163.622" rx="4.00001" ry="4.00001"/>
<polygon fill="#6b6a82" stroke="#6b6a82" points="1098.51,-111.321 1089.12,-105.654 1093.55,-110.721 1088.58,-110.122 1088.58,-110.122 1088.58,-110.122 1093.55,-110.721 1088.04,-114.589 1098.51,-111.321 1098.51,-111.321"/>
</g>
<!-- UsoForestal -->
<g id="node26" class="node"><title>UsoForestal</title>
<ellipse fill="none" stroke="black" cx="1588.77" cy="-177" rx="52.6952" ry="18"/>
<text text-anchor="middle" x="1588.77" y="-172.8" font-family="Times,serif" font-size="14.00">UsoForestal</text>
</g>
<!-- UsoForestal&#45;&gt;Plantacion -->
<g id="edge26" class="edge"><title>UsoForestal&#45;&gt;Plantacion</title>
<path fill="none" stroke="#292e94" d="M1542.81,-162.543C1537.43,-161.222 1531.99,-160.003 1526.77,-159 1374.16,-129.734 1191.18,-114.63 1100.48,-108.457"/>
<ellipse fill="none" stroke="#292e94" cx="1546.74" cy="-163.547" rx="4.00001" ry="4.00001"/>
<polygon fill="#292e94" stroke="#292e94" points="1100.39,-108.451 1090.72,-103.293 1095.41,-108.117 1090.42,-107.783 1090.42,-107.783 1090.42,-107.783 1095.41,-108.117 1090.12,-112.273 1100.39,-108.451 1100.39,-108.451"/>
</g>
<!-- Zona -->
<g id="node27" class="node"><title>Zona</title>
<ellipse fill="none" stroke="black" cx="1163.77" cy="-263" rx="28.0565" ry="18"/>
<text text-anchor="middle" x="1163.77" y="-258.8" font-family="Times,serif" font-size="14.00">Zona</text>
</g>
<!-- Zona&#45;&gt;Departamento -->
<g id="edge27" class="edge"><title>Zona&#45;&gt;Departamento</title>
<path fill="none" stroke="#42d3d8" d="M1179.73,-239.644C1187.73,-228.445 1197.45,-214.842 1205.72,-203.265"/>
<ellipse fill="none" stroke="#42d3d8" cx="1177.38" cy="-242.945" rx="4.00002" ry="4.00002"/>
<polygon fill="#42d3d8" stroke="#42d3d8" points="1205.89,-203.019 1215.37,-197.497 1208.8,-198.951 1211.71,-194.882 1211.71,-194.882 1211.71,-194.882 1208.8,-198.951 1208.05,-192.266 1205.89,-203.019 1205.89,-203.019"/>
</g>
<!-- Zona&#45;&gt;Plantacion -->
<g id="edge28" class="edge"><title>Zona&#45;&gt;Plantacion</title>
<path fill="none" stroke="#67b3a8" d="M1156.54,-237.593C1149.12,-215.423 1135.94,-182.666 1116.77,-159 1106.02,-145.738 1091.3,-134.034 1077.9,-124.942"/>
<ellipse fill="none" stroke="#67b3a8" cx="1157.79" cy="-241.439" rx="4.00001" ry="4.00001"/>
<polygon fill="#67b3a8" stroke="#67b3a8" points="1077.71,-124.819 1071.79,-115.586 1073.52,-122.087 1069.33,-119.355 1069.33,-119.355 1069.33,-119.355 1073.52,-122.087 1066.88,-123.124 1077.71,-124.819 1077.71,-124.819"/>
</g>
</g>
</svg>
